<?xml version="1.0" encoding="UTF-8"?>
<svg id="Layer_1" xmlns="http://www.w3.org/2000/svg" version="1.1" viewBox="0 0 24 24">
  <!-- Generator: Adobe Illustrator 30.3.0, SVG Export Plug-In . SVG Version: 2.1.3 Build 182)  -->
  <defs>
    <style>
      .st0 {
        fill: #1f1f1f;
      }
    </style>
  </defs>
  <path class="st0" d="M5.25,19l-1.53-10.88c-.53.08-.97.34-1.31.78-.34.43-.47.92-.39,1.45l1.22,8.93c.08.55.33.99.75,1.32.42.33.9.46,1.45.38l11.92-1.65c.4-.05.74-.2,1.01-.44s.48-.54.61-.89h-6.67l-7.08,1h.02Z"/>
  <path class="st0" d="M21.41,3.59c-.39-.39-.86-.59-1.41-.59h-12c-.55,0-1.02.2-1.41.59-.39.39-.59.86-.59,1.41v9.1c0,.55.2,1.02.59,1.41.39.39.86.59,1.41.59h12c.55,0,1.02-.2,1.41-.59.39-.39.59-.86.59-1.41V5c0-.55-.2-1.02-.59-1.41ZM18.64,10.98c-.23.23-.51.34-.84.34v1.9c0,.26-.09.48-.28.67s-.41.28-.67.28h-1.8c0-.4-.12-.73-.37-1.01-.25-.28-.55-.42-.91-.42s-.66.14-.91.42c-.25.28-.37.61-.37,1.01h-1.8c-.26,0-.48-.09-.67-.28s-.28-.41-.28-.67v-1.8c.38,0,.71-.12,1-.36.28-.24.43-.55.43-.92s-.14-.68-.43-.92c-.28-.24-.62-.36-1-.36v-1.8c0-.26.09-.48.28-.67s.41-.28.67-.28h1.9c0-.33.11-.61.34-.84.23-.23.51-.34.84-.34s.61.11.84.34.34.51.34.84h1.9c.26,0,.48.09.67.28s.28.41.28.67v1.9c.33,0,.61.11.84.34s.34.51.34.84-.11.61-.34.84Z"/>
</svg>