<?xml version="1.0" encoding="UTF-8"?>
<svg id="Layer_1" data-name="Layer 1" xmlns="http://www.w3.org/2000/svg" viewBox="0 0 83.8 86.85">
  <path d="M80.16,37.83c-.2-.42-.21-.79-.05-1.24,1.85-5.32,2.83-10.73,3.12-16.39.29-5.65-.73-14.79-4.39-18.93-1.09-1.23-2.68-1.47-4.2-1.14-4.77,1.04-11.73,7.06-15.15,10.88l-2.85,3.18c-3.77-1.37-7.51-2.34-11.51-2.65h-6.27c-4.04.29-7.88,1.28-11.76,2.67-3.09-3.63-6.32-6.96-10.09-9.81l-3.83-2.57c-3.03-1.68-6.35-3-8.64-.15C1.76,5.13.61,11.9.44,16.52c-.25,7.01,1.11,13.9,3.33,20.66C1.92,41.32.47,45.54.05,50.08l-.05,5.68c.61,5.38,2.62,10.33,5.92,14.62,3.58,4.64,8.06,8.29,13.24,11.04,6.53,3.46,13.62,5.16,20.97,5.43l4.92-.06c8.71-.44,17.14-3.32,24.28-8.3,1.59-1.11,2.99-2.18,4.31-3.52l1.77-1.79c1.21-1.22,2.18-2.49,3.18-3.93,6.79-9.69,6.54-20.94,1.56-31.43ZM61.69,18.7c2.24-3.34,9.93-12.59,13.22-9.83,2.09,1.76,2.56,8.37,2.3,11.58-.28,3.52-.77,6.88-1.77,10.27-.21.71-1.38,1-1.92.35l-3.68-4.39c-2.14-2.55-4.8-4.53-7.55-6.42-.54-.38-.74-.83-.6-1.56ZM55.9,39.66c2.04,0,3.69,1.65,3.69,3.69s-1.65,3.69-3.69,3.69-3.69-1.65-3.69-3.69,1.65-3.69,3.69-3.69ZM27.84,39.66c2.04,0,3.69,1.65,3.69,3.69s-1.65,3.69-3.69,3.69-3.69-1.65-3.69-3.69,1.65-3.69,3.69-3.69ZM6.92,13.4c.27-1.59.68-3.2,1.77-4.43.65-.73,1.84-.72,2.71-.41,3.74,1.3,8.16,6.61,10.5,10.04.4.59,0,1.32-.49,1.72-4.28,2.8-7.85,6.36-10.93,10.52-.37.5-.87.64-1.3.58-.55-.07-.8-.52-.97-1.08-1-3.37-1.42-6.77-1.75-10.28-.21-2.26.09-4.41.47-6.66ZM72.62,71.28c-2.57,3.53-5.87,6.07-9.8,7.94-2.62,1.24-5.23,1.89-8.08,2.84-8.94,2.99-15.59,3.24-24.49.31l-4.67-1.54c-6.57-2.16-10.78-4.66-14.91-10.26-2.43-3.3-4.23-7.03-4.97-11.09-.47-2.6-.14-5.17,1.04-7.42,1.65-3.17,5.05-4.59,8.53-3.74,4.44,1.08,6.66,5.2,10.63,5.62l2.23.23c1.89-3.42,4.82-5.99,8.43-7.38,7.36-2.84,15.28.68,19.06,7.43.64-.23,1.19-.22,1.8-.27,1.83-.14,3.41-.97,4.85-2.04l3.07-2.26c2.04-1.51,4.74-2.01,7.25-1.25,2.73.83,4.63,3.15,5.25,5.89,1.34,5.9-1.75,12.21-5.23,16.99Z"/>
  <path d="M53.64,61.94c-.49-.22-1.09-.05-1.45.45-2.12,2.94-6.19,2.3-9.09,0v-3.45c2.28-1.21,5.15-4.35,4.06-6.3-1.08-1.94-6.4-1.8-9.14-1.08-.69.18-1.26.72-1.48,1.16-.95,1.91,1.76,5.03,4.08,6.19l.05,3.45c-2.86,2.26-6.69,2.99-9.07.06-.51-.63-1.27-.77-1.78-.32-.59.52-.51,1.24-.08,1.79,3.17,3.98,7.98,3.45,12.15.59,1.62,1.08,3.13,1.85,4.91,2.16,2.97.52,5.91-.66,7.48-3.23.32-.52-.26-1.31-.65-1.48Z"/>
</svg>