<?xml version="1.0" encoding="UTF-8"?>
<svg id="Layer_1" xmlns="http://www.w3.org/2000/svg" version="1.1" viewBox="0 0 24 24">
  <!-- Generator: Adobe Illustrator 30.3.0, SVG Export Plug-In . SVG Version: 2.1.3 Build 182)  -->
  <defs>
    <style>
      .st0 {
        fill: #1f1f1f;
      }
    </style>
  </defs>
  <path class="st0" d="M21.41,3.59c-.39-.39-.86-.59-1.41-.59h-12c-.55,0-1.02.2-1.41.59s-.59.86-.59,1.41v9.1c0,.55.2,1.02.59,1.41s.86.59,1.41.59h12c.55,0,1.02-.2,1.41-.59s.59-.86.59-1.41V5c0-.55-.2-1.02-.59-1.41ZM20.34,12.66c-.59,0-1.13-.23-1.62-.69-.48-.45-.77-1.12-.84-1.99-.65,1.13-1.42,1.96-2.3,2.5-.87.54-1.79.81-2.74.81-1.01,0-1.98-.28-2.92-.86-.93-.57-1.69-1.53-2.26-2.89.57-1.35,1.33-2.31,2.26-2.89.93-.57,1.91-.86,2.92-.86.94,0,1.86.29,2.72.87.86.58,1.64,1.41,2.31,2.5.08-.89.35-1.57.84-2.04.49-.47,1.03-.7,1.62-.7v6.23Z"/>
  <path class="st0" d="M5.25,19l-1.53-10.88c-.53.08-.97.34-1.31.78-.34.43-.47.92-.39,1.45l1.22,8.93c.08.55.33.99.75,1.32.42.33.9.46,1.45.38l11.92-1.65c.4-.05.74-.2,1.01-.44.27-.24.48-.54.61-.89h-6.67l-7.08,1Z"/>
</svg>