<?xml version="1.0" encoding="UTF-8"?>
<svg id="Layer_1" xmlns="http://www.w3.org/2000/svg" version="1.1" viewBox="0 0 24 24">
  <!-- Generator: Adobe Illustrator 30.3.0, SVG Export Plug-In . SVG Version: 2.1.3 Build 182)  -->
  <defs>
    <style>
      .st0 {
        fill: #1f1f1f;
      }
    </style>
  </defs>
  <path class="st0" d="M10.17,17.95c1.51,0,2.96-.43,4.35-1.29,1.39-.86,2.61-2.18,3.65-3.97.12,1.39.57,2.45,1.34,3.17s1.63,1.09,2.57,1.09V7.04c-.94,0-1.79.37-2.57,1.12s-1.22,1.83-1.34,3.25c-1.08-1.72-2.31-3.04-3.68-3.97s-2.82-1.39-4.32-1.39c-1.61,0-3.16.45-4.64,1.36-1.49.91-2.69,2.44-3.6,4.59.92,2.15,2.12,3.68,3.6,4.59,1.49.91,3.03,1.36,4.64,1.36Z"/>
</svg>